<svg width="141" height="30" viewBox="0 0 141 30" fill="none" xmlns="http://www.w3.org/2000/svg">
<path d="M7.66688 24.3C6.26688 24.3 5.03688 24.04 3.97688 23.52C2.93688 22.98 2.12688 22.23 1.54688 21.27C0.986875 20.29 0.706875 19.14 0.706875 17.82V8.28C0.706875 6.94 0.986875 5.79 1.54688 4.83C2.12688 3.87 2.93688 3.13 3.97688 2.61C5.03688 2.07 6.26688 1.8 7.66688 1.8C9.08688 1.8 10.3069 2.07 11.3269 2.61C12.3669 3.13 13.1769 3.87 13.7569 4.83C14.3369 5.79 14.6269 6.94 14.6269 8.28H10.8469C10.8469 7.24 10.5669 6.45 10.0069 5.91C9.46688 5.37 8.68688 5.1 7.66688 5.1C6.64688 5.1 5.85688 5.37 5.29688 5.91C4.73688 6.45 4.45688 7.23 4.45688 8.25V17.82C4.45688 18.84 4.73688 19.63 5.29688 20.19C5.85688 20.73 6.64688 21 7.66688 21C8.68688 21 9.46688 20.73 10.0069 20.19C10.5669 19.63 10.8469 18.84 10.8469 17.82H14.6269C14.6269 19.12 14.3369 20.26 13.7569 21.24C13.1769 22.22 12.3669 22.98 11.3269 23.52C10.3069 24.04 9.08688 24.3 7.66688 24.3ZM28.0552 24C26.9752 24 26.0252 23.78 25.2052 23.34C24.4052 22.9 23.7752 22.28 23.3152 21.48C22.8552 20.66 22.6252 19.72 22.6252 18.66V5.49H17.3452V2.1H26.3752V18.66C26.3752 19.26 26.5452 19.74 26.8852 20.1C27.2452 20.44 27.7252 20.61 28.3252 20.61H33.3052V24H28.0552ZM43.5234 24.27C42.1234 24.27 40.9034 24.01 39.8634 23.49C38.8434 22.95 38.0434 22.2 37.4634 21.24C36.9034 20.26 36.6234 19.11 36.6234 17.79V13.71C36.6234 12.39 36.9034 11.25 37.4634 10.29C38.0434 9.31 38.8434 8.56 39.8634 8.04C40.9034 7.5 42.1234 7.23 43.5234 7.23C44.9434 7.23 46.1634 7.5 47.1834 8.04C48.2034 8.56 48.9934 9.31 49.5534 10.29C50.1334 11.25 50.4234 12.38 50.4234 13.68V17.79C50.4234 19.11 50.1334 20.26 49.5534 21.24C48.9934 22.2 48.2034 22.95 47.1834 23.49C46.1634 24.01 44.9434 24.27 43.5234 24.27ZM43.5234 21C44.5234 21 45.2934 20.73 45.8334 20.19C46.3934 19.63 46.6734 18.83 46.6734 17.79V13.71C46.6734 12.65 46.3934 11.85 45.8334 11.31C45.2934 10.77 44.5234 10.5 43.5234 10.5C42.5434 10.5 41.7734 10.77 41.2134 11.31C40.6534 11.85 40.3734 12.65 40.3734 13.71V17.79C40.3734 18.83 40.6534 19.63 41.2134 20.19C41.7734 20.73 42.5434 21 43.5234 21ZM63.3117 24C61.7317 24 60.4917 23.56 59.5917 22.68C58.7117 21.8 58.2717 20.59 58.2717 19.05V10.89H53.8017V7.5H58.2717V2.85H62.0517V7.5H68.3817V10.89H62.0517V19.05C62.0517 20.09 62.5617 20.61 63.5817 20.61H68.0817V24H63.3117ZM72.81 24V2.1H76.56V7.5L76.47 10.65H77.49L76.47 11.52C76.47 10.16 76.86 9.1 77.64 8.34C78.44 7.58 79.53 7.2 80.91 7.2C82.53 7.2 83.82 7.74 84.78 8.82C85.76 9.9 86.25 11.35 86.25 13.17V24H82.5V13.56C82.5 12.56 82.24 11.79 81.72 11.25C81.2 10.71 80.47 10.44 79.53 10.44C78.61 10.44 77.88 10.72 77.34 11.28C76.82 11.84 76.56 12.64 76.56 13.68V24H72.81ZM90.7683 24V20.58H96.5283V10.89H91.5183V7.5H100.128V20.58H105.228V24H90.7683ZM98.0283 4.74C97.2683 4.74 96.6683 4.55 96.2283 4.17C95.7883 3.77 95.5683 3.24 95.5683 2.58C95.5683 1.92 95.7883 1.4 96.2283 1.02C96.6683 0.619999 97.2683 0.42 98.0283 0.42C98.7883 0.42 99.3883 0.619999 99.8283 1.02C100.268 1.4 100.488 1.92 100.488 2.58C100.488 3.24 100.268 3.77 99.8283 4.17C99.3883 4.55 98.7883 4.74 98.0283 4.74ZM108.787 24V7.5H112.447V10.65H113.467L112.447 11.52C112.447 10.16 112.837 9.1 113.617 8.34C114.417 7.58 115.507 7.2 116.887 7.2C118.507 7.2 119.797 7.74 120.757 8.82C121.737 9.9 122.227 11.35 122.227 13.17V24H118.477V13.56C118.477 12.56 118.217 11.79 117.697 11.25C117.177 10.71 116.447 10.44 115.507 10.44C114.587 10.44 113.857 10.72 113.317 11.28C112.797 11.84 112.537 12.64 112.537 13.68V24H108.787ZM129.025 29.4V26.28H133.915C134.755 26.28 135.385 26.07 135.805 25.65C136.225 25.25 136.435 24.67 136.435 23.91V22.68L136.495 19.59H135.685L136.495 18.78C136.495 20.12 136.095 21.17 135.295 21.93C134.515 22.67 133.455 23.04 132.115 23.04C130.435 23.04 129.095 22.47 128.095 21.33C127.115 20.19 126.625 18.65 126.625 16.71V13.5C126.625 11.58 127.115 10.05 128.095 8.91C129.095 7.77 130.435 7.2 132.115 7.2C133.455 7.2 134.515 7.58 135.295 8.34C136.095 9.08 136.495 10.12 136.495 11.46L135.685 10.65H136.495L136.405 7.5H140.155V24C140.155 25.66 139.605 26.97 138.505 27.93C137.405 28.91 135.895 29.4 133.975 29.4H129.025ZM133.375 19.8C134.335 19.8 135.075 19.52 135.595 18.96C136.135 18.38 136.405 17.58 136.405 16.56V13.68C136.405 12.66 136.135 11.87 135.595 11.31C135.075 10.73 134.335 10.44 133.375 10.44C132.415 10.44 131.675 10.72 131.155 11.28C130.635 11.84 130.375 12.64 130.375 13.68V16.56C130.375 17.6 130.635 18.4 131.155 18.96C131.675 19.52 132.415 19.8 133.375 19.8Z" fill="black"/>
</svg>
